<svg width="24" height="25" viewBox="0 0 24 25" fill="none" xmlns="http://www.w3.org/2000/svg">
<path d="M18.677 20.107L12.962 14.391C10.4197 16.1985 6.91645 15.7564 4.90288 13.3739C2.88932 10.9915 3.03717 7.46361 5.24301 5.25802C7.44827 3.05147 10.9765 2.90298 13.3594 4.91644C15.7423 6.92989 16.1846 10.4335 14.377 12.976L20.092 18.692L18.678 20.106L18.677 20.107ZM9.48501 5.50001C7.58871 5.49958 5.9527 6.8307 5.56749 8.68745C5.18227 10.5442 6.15372 12.4163 7.89369 13.1703C9.63365 13.9242 11.6639 13.3528 12.7553 11.8021C13.8466 10.2513 13.6991 8.14734 12.402 6.76402L13.007 7.36402L12.325 6.68402L12.313 6.67202C11.5648 5.9192 10.5464 5.49715 9.48501 5.50001Z" fill="white"/>
</svg>
