<svg width="50" height="50" viewBox="0 0 50 50" fill="none" xmlns="http://www.w3.org/2000/svg">
<g opacity="0.4">
<path d="M25 45.8334C13.4941 45.8334 4.16666 36.506 4.16666 25C4.16666 13.4941 13.4941 4.16669 25 4.16669C36.5059 4.16669 45.8333 13.4941 45.8333 25C45.8207 36.5007 36.5007 45.8207 25 45.8334ZM25 8.33335C15.7952 8.33335 8.33332 15.7953 8.33332 25C8.33332 34.2048 15.7952 41.6667 25 41.6667C34.2047 41.6667 41.6667 34.2048 41.6667 25C41.6563 15.7996 34.2005 8.34369 25 8.33335ZM25 35.4167L14.5833 25L17.5208 22.0625L22.9167 27.4375V14.5834H27.0833V27.4375L32.4792 22.0625L35.4167 25L25 35.4167Z" fill="white"/>
</g>
</svg>
