<svg width="516" height="115" viewBox="0 0 516 115" fill="none" xmlns="http://www.w3.org/2000/svg">
<g clip-path="url(#clip0_6_235)">
<path d="M192.704 115C188.135 115.009 183.655 113.743 179.767 111.344C175.879 108.945 172.738 105.508 170.697 101.421C164.648 103.13 158.175 102.459 152.605 99.5458C147.144 96.2872 143.139 91.0585 141.416 84.9364C136.425 85.1637 131.529 83.5193 127.687 80.3252C123.845 77.1311 121.334 72.6176 120.646 67.6689C112.177 67.8131 73.5621 68.3695 60.086 68.3077C57.721 68.3112 55.3793 67.8407 53.1992 66.9241C51.0191 66.0075 49.0448 64.6632 47.3929 62.9708C43.6261 59.054 41.32 53.9616 40.861 48.5469C23.2019 47.2281 18.8335 41.0876 16.4845 28.2709C-1.68967 23.511 -0.473937 10.8386 0.432711 1.54542L2.18419 0C34.8441 0.741803 68.4313 1.85451 100.968 2.9466C132.844 4.12113 165.834 5.1102 197.938 5.852C207.54 6.05805 223.612 6.40835 228.681 21.4299C229.501 23.8028 229.919 26.296 229.918 28.8067C230.041 37.1725 226.992 44.57 224.045 51.7201C222.973 54.3576 221.84 57.0776 220.913 59.7769C216.441 72.6966 217.904 85.4515 224.91 94.8065L224.601 97.1555C223.221 98.2476 221.799 99.4221 220.315 100.638C213.268 106.449 205.294 113.001 196.784 114.608C195.44 114.872 194.073 115.004 192.704 115V115ZM171.274 97.7325L173.335 98.8246C176.178 107.19 186.831 112.981 196.124 111.188C203.769 109.766 211.393 103.481 218.131 97.9385L221.181 95.4247C214.319 85.3073 212.939 71.9961 217.657 58.6024C218.626 55.8 219.718 53.0389 220.872 50.3602C223.818 43.2718 226.662 36.5132 226.497 28.8479C226.502 26.7088 226.147 24.5843 225.446 22.5632C221.469 10.7561 209.642 9.5198 197.814 9.27253C165.71 8.53073 132.7 7.43863 100.762 6.36714C68.8228 5.29565 35.8538 4.12113 3.6884 3.46175C2.88478 12.1779 2.88478 21.5947 18.5451 25.2007L19.8432 26.6019C21.9038 38.7592 24.5825 44.2197 42.5094 45.3118L44.1166 47.022C44.2304 52.0719 46.2212 56.8983 49.7008 60.5599C51.0502 61.9504 52.6689 63.0512 54.4581 63.7952C56.2472 64.5392 58.1691 64.9107 60.1066 64.8871C75.1487 64.8871 121.779 64.2277 122.233 64.2277L123.984 65.938C124.112 68.1803 124.697 70.3728 125.703 72.3809C126.709 74.389 128.115 76.1703 129.834 77.6156C131.554 79.0608 133.55 80.1395 135.701 80.7854C137.852 81.4313 140.113 81.6308 142.344 81.3716L144.404 82.608C144.93 85.5156 146.093 88.271 147.808 90.677C149.524 93.083 151.75 95.08 154.327 96.5253C156.904 97.9705 159.769 98.8281 162.717 99.0368C165.664 99.2455 168.622 98.8001 171.377 97.7325H171.274Z" fill="white"/>
<path d="M12.858 15.4955C12.4446 15.0334 12.1737 14.4615 12.078 13.8489C11.9822 13.2363 12.0657 12.6091 12.3183 12.0428C12.571 11.4766 12.982 10.9955 13.5018 10.6575C14.0217 10.3196 14.6282 10.1392 15.2482 10.1381C80.465 10.7562 198.824 15.4131 203.316 15.4337C208.982 15.4337 216.648 16.5876 220.975 25.0565C221.654 26.5291 222.052 28.1154 222.149 29.734C222.314 38.4296 217.245 45.0234 213.907 52.4002C211.067 58.7178 209.517 65.5387 209.347 72.4631C209.178 79.3875 210.391 86.2762 212.918 92.7254C213.188 93.3754 213.242 94.0951 213.071 94.7779C212.901 95.4608 212.514 96.0705 211.97 96.5168C207.313 100.164 202.409 103.605 196.66 104.759C192.655 105.544 188.502 104.864 184.956 102.843C184.356 102.498 183.883 101.968 183.608 101.332C183.333 100.696 183.271 99.9883 183.43 99.3143C183.59 98.6403 183.964 98.0359 184.495 97.5913C185.026 97.1466 185.686 96.8854 186.378 96.8465V96.8465C187.207 96.7986 187.984 96.4255 188.539 95.8081C189.095 95.1908 189.385 94.3792 189.345 93.5496V93.0139C189.337 92.5981 189.247 92.188 189.08 91.8072C188.913 91.4264 188.672 91.0824 188.371 90.7951C188.07 90.5078 187.716 90.2828 187.328 90.1332C186.94 89.9835 186.526 89.9121 186.11 89.923H185.719C179.166 90.9327 165.875 92.2927 161.631 92.4988C157.88 92.7048 151.328 87.471 150.462 82.4844C150.318 81.5984 178.568 81.3305 188.253 81.145C189.077 81.1345 189.864 80.8039 190.449 80.2233C191.033 79.6426 191.369 78.8574 191.385 78.0336V77.0239C191.407 76.1892 191.1 75.3792 190.529 74.7698C189.958 74.1603 189.17 73.8005 188.336 73.7682H188.129C176.508 74.0979 138.47 74.7779 137.666 74.7573C136.239 74.6705 134.855 74.2366 133.634 73.4932C132.414 72.7499 131.393 71.7196 130.66 70.4919C130.208 69.7974 130.05 68.9521 130.22 68.1411C130.39 67.33 130.874 66.6194 131.567 66.1648C132.097 65.8125 132.723 65.6326 133.36 65.6496C144.033 65.8351 169.296 66.0411 178.28 66.0205C179.122 66.0205 179.929 65.6862 180.524 65.0911C181.119 64.496 181.453 63.6889 181.453 62.8473V62.8473V61.1988C181.453 60.3534 181.12 59.5419 180.526 58.9403C179.932 58.3386 179.125 57.9952 178.28 57.9843C161.795 58.108 87.0176 58.6231 60.6424 58.5201C60.1372 58.5071 59.6425 58.3728 59.2 58.1286C56.384 56.6677 53.9059 54.6319 51.9263 52.1529C51.6855 51.802 51.5168 51.4068 51.4299 50.9902C51.3431 50.5736 51.3398 50.1439 51.4203 49.7261C51.5008 49.3082 51.6635 48.9105 51.8989 48.556C52.1343 48.2015 52.4378 47.8972 52.7917 47.6609C53.3426 47.2826 53.9988 47.0879 54.6668 47.1046C90.7885 47.8464 128.311 47.6815 164.433 47.7021C164.85 47.7048 165.263 47.6254 165.649 47.4685C166.035 47.3115 166.386 47.08 166.683 46.7873C166.979 46.4945 167.215 46.1462 167.377 45.7623C167.539 45.3783 167.624 44.9662 167.627 44.5495V43.8283C167.638 43.4034 167.565 42.9805 167.412 42.5838C167.26 42.1871 167.031 41.8244 166.738 41.5163C166.445 41.2082 166.095 40.9608 165.706 40.7883C165.318 40.6157 164.899 40.5214 164.474 40.5108H164.248C144.054 40.9435 35.6478 38.6769 34.6793 38.4502C31.9904 37.6971 29.6141 36.1008 27.9001 33.8963C27.6295 33.5783 27.4249 33.2096 27.298 32.8117C27.1711 32.4139 27.1245 31.9948 27.1609 31.5788C27.1974 31.1628 27.3161 30.7582 27.5102 30.3884C27.7043 30.0187 27.9699 29.6912 28.2916 29.4249C28.8649 28.9345 29.5978 28.6706 30.3522 28.6831C50.2366 28.951 128.806 30.0637 173.602 31.1146C174.437 31.1313 175.245 30.8184 175.85 30.2437C176.456 29.669 176.811 28.8788 176.838 28.0443V25.9838C176.854 25.5626 176.787 25.1423 176.64 24.7472C176.494 24.352 176.27 23.9898 175.983 23.6814C175.696 23.373 175.35 23.1245 174.966 22.9503C174.582 22.7761 174.168 22.6796 173.747 22.6663C152.255 22.0069 22.3572 20.6057 19.3075 19.6167C16.8379 18.8229 14.6159 17.4031 12.858 15.4955V15.4955Z" fill="white"/>
<path d="M287.819 2.06055V30.2903C287.819 36.5956 286.521 41.3143 283.925 44.4463C280.463 48.5674 274.913 50.628 267.276 50.628C259.033 50.628 253.305 48.2996 249.884 43.6221C247.7 40.6755 246.608 36.2041 246.608 30.1666V2.06055H258.972V31.0939C258.75 33.6565 259.484 36.2104 261.032 38.2646C261.906 39.0627 262.936 39.6707 264.056 40.0502C265.177 40.4297 266.365 40.5724 267.543 40.4694C268.656 40.5656 269.776 40.4181 270.826 40.0374C271.876 39.6566 272.83 39.0517 273.622 38.2646C275.066 36.1656 275.743 33.6333 275.538 31.0939V2.246L287.819 2.06055Z" fill="white"/>
<path d="M336.778 2.06055V49.4535H324.765L312.01 27.9824L309.29 23.1607C308.534 21.8229 307.846 20.4474 307.23 19.0396C307.518 22.5219 307.683 26.54 307.683 31.0733V49.4535H295.67V2.06055H308.157L319.923 22.0892C321.85 25.3002 323.611 28.6083 325.198 32.0005C324.848 27.3643 324.683 23.3049 324.683 19.7814V2.06055H336.778Z" fill="white"/>
<path d="M357.734 2.06055V49.4535H345.371V2.06055H357.734Z" fill="white"/>
<path d="M387.86 0.947881C391.192 0.817215 394.509 1.4534 397.557 2.80739C400.604 4.16138 403.3 6.19703 405.436 8.75741C409.273 13.5911 411.266 19.6307 411.062 25.7983C411.244 29.2563 410.699 32.7142 409.46 35.9479C408.221 39.1816 406.317 42.119 403.87 44.57C399.14 48.7678 392.951 50.9406 386.634 50.6207C380.318 50.3008 374.38 47.5139 370.098 42.8597C366.203 38.0477 364.189 31.9844 364.431 25.7983C364.431 17.9269 366.76 11.7452 371.416 7.2532C375.852 3.06637 381.762 0.800298 387.86 0.947881V0.947881ZM387.86 11.1271C386.214 11.0958 384.589 11.4935 383.144 12.2811C381.698 13.0688 380.483 14.2192 379.618 15.6191C377.771 18.6584 376.887 22.1855 377.083 25.7364C376.807 29.7724 377.976 33.775 380.38 37.0283C381.308 38.1513 382.482 39.0458 383.811 39.6425C385.141 40.2392 386.589 40.5221 388.045 40.4695C389.582 40.5281 391.109 40.1981 392.485 39.5102C393.861 38.8223 395.041 37.7986 395.917 36.5338C397.986 33.2512 398.98 29.4047 398.76 25.5304C399.024 21.5435 397.83 17.5967 395.401 14.424C394.478 13.3211 393.309 12.4489 391.989 11.8765C390.67 11.3042 389.234 11.0476 387.798 11.1271H387.86Z" fill="white"/>
<path d="M458.846 2.06055V49.4535H446.812L434.078 27.9824L431.358 23.1607C430.577 21.836 429.889 20.4591 429.298 19.0396C429.586 22.5219 429.751 26.54 429.751 31.0733V49.4535H417.738V2.06055H430.225L441.991 22.0892C443.918 25.3002 445.679 28.6083 447.266 32.0005C446.915 27.3643 446.73 23.3049 446.73 19.7814V2.06055H458.846Z" fill="white"/>
<path d="M247.268 65.4641H266.76C273.025 65.4641 277.544 66.412 280.319 68.3077C282.447 69.7627 284.161 71.7442 285.295 74.059C286.429 76.3738 286.944 78.9429 286.789 81.5159C286.87 83.6948 286.475 85.8651 285.632 87.8757C284.788 89.8864 283.517 91.689 281.906 93.1581C279.062 95.7132 274.9 96.9907 269.419 96.9907H259.631V112.775H247.268V65.4641ZM259.631 75.6433V87.1824H267.873C272.544 87.1824 274.879 85.2455 274.879 81.3717C274.879 77.5802 272.406 75.6639 267.42 75.6227L259.631 75.6433Z" fill="white"/>
<path d="M318.542 65.4641L336.263 112.857H323.508L320.459 104.203H303.974L300.925 112.857H288.273L305.994 65.4641H318.542ZM317.553 95.2598L315.266 88.8515C314.067 85.3954 313.07 81.8728 312.278 78.3014C311.372 81.7426 310.218 85.3485 309.023 89.0782L306.962 95.2598H317.553Z" fill="white"/>
<path d="M383.697 94.3327C383.484 99.0544 381.692 103.568 378.608 107.149C374.693 111.744 369.088 114.032 361.835 114.032C358.403 114.212 354.978 113.576 351.84 112.176C348.702 110.775 345.941 108.65 343.784 105.975C340.037 101.173 338.096 95.2069 338.303 89.1195C338.089 82.7304 340.297 76.4964 344.485 71.6665C346.704 69.2213 349.436 67.296 352.485 66.028C355.533 64.76 358.825 64.1805 362.123 64.3309C367.842 64.1224 373.411 66.1813 377.619 70.0593C381.06 73.1976 383.125 77.5656 383.368 82.2166H371.334C371.021 80.4216 370.247 78.7387 369.088 77.3331C368.185 76.3708 367.083 75.6177 365.859 75.1265C364.634 74.6353 363.317 74.4179 362 74.4895C360.305 74.4392 358.627 74.826 357.125 75.6128C355.624 76.3996 354.351 77.5597 353.428 78.9815C351.57 82.0856 350.673 85.6709 350.852 89.2843C350.584 93.3034 351.76 97.2861 354.17 100.514C355.132 101.632 356.339 102.512 357.697 103.087C359.055 103.663 360.527 103.917 362 103.832C363.457 103.907 364.91 103.614 366.224 102.98C367.538 102.347 368.672 101.392 369.521 100.205C370.594 98.432 371.249 96.4379 371.437 94.3739L383.697 94.3327Z" fill="white"/>
<path d="M401.995 65.4641V112.857H389.632V65.4641H401.995Z" fill="white"/>
<path d="M445.617 65.464V75.6432H422.951V84.8951H442.506V94.5386H422.951V112.775H410.588V65.3816L445.617 65.464Z" fill="white"/>
<path d="M463.627 65.4641V112.857H451.263V65.4641H463.627Z" fill="white"/>
<path d="M515.532 94.3327C515.296 99.0644 513.474 103.579 510.36 107.149C506.424 111.744 500.84 114.032 493.567 114.032C490.138 114.213 486.715 113.576 483.581 112.176C480.446 110.775 477.689 108.65 475.537 105.975C471.789 101.173 469.849 95.2069 470.056 89.1195C469.827 82.7282 472.037 76.489 476.237 71.6665C478.456 69.2213 481.188 67.296 484.237 66.028C487.286 64.76 490.577 64.1805 493.876 64.3309C499.567 64.1398 505.104 66.1978 509.289 70.0593C512.73 73.1976 514.795 77.5656 515.038 82.2166H503.004C502.667 80.4089 501.881 78.7152 500.717 77.2918C499.836 76.3576 498.767 75.6211 497.581 75.1309C496.395 74.6407 495.118 74.408 493.834 74.4483C492.133 74.3888 490.445 74.7713 488.936 75.5586C487.426 76.3459 486.146 77.511 485.221 78.9403C483.363 82.0444 482.467 85.6297 482.646 89.2431C482.361 93.2609 483.531 97.2471 485.943 100.473C486.882 101.599 488.067 102.494 489.407 103.09C490.746 103.687 492.204 103.969 493.67 103.914C495.131 103.997 496.589 103.707 497.908 103.073C499.227 102.439 500.363 101.481 501.211 100.288C502.284 98.5144 502.939 96.5203 503.128 94.4563L515.532 94.3327Z" fill="white"/>
</g>
<defs>
<clipPath id="clip0_6_235">
<rect width="515.532" height="115" fill="white"/>
</clipPath>
</defs>
</svg>
