<svg width="190" height="43" viewBox="0 0 190 43" fill="none" xmlns="http://www.w3.org/2000/svg">
<g clip-path="url(#clip0_24_49)">
<path d="M70.6971 42.19C69.0211 42.1934 67.3773 41.7289 65.951 40.8488C64.5246 39.9686 63.3722 38.7078 62.6235 37.2082C60.4044 37.8352 58.0295 37.589 55.9862 36.5203C53.9825 35.3248 52.5134 33.4066 51.8813 31.1606C50.0502 31.244 48.254 30.6407 46.8445 29.4689C45.4349 28.2971 44.5137 26.6412 44.2613 24.8257C41.1543 24.8786 26.9877 25.0827 22.0437 25.06C21.1761 25.0613 20.317 24.8887 19.5172 24.5524C18.7173 24.2161 17.993 23.723 17.387 23.1021C16.0051 21.6651 15.159 19.7969 14.9906 17.8104C8.51206 17.3266 6.90942 15.0738 6.04763 10.3717C-0.619914 8.62548 -0.173899 3.97634 0.158722 0.566968L0.801286 0C12.7832 0.272145 25.1053 0.680362 37.0419 1.08102C48.7366 1.51192 60.8394 1.87478 72.6173 2.14692C76.14 2.22252 82.0365 2.35103 83.8962 7.86196C84.197 8.73252 84.3503 9.64721 84.3497 10.5683C84.3951 13.6375 83.2763 16.3514 82.1953 18.9745C81.8022 19.9422 81.3864 20.94 81.0462 21.9303C79.4058 26.6702 79.9425 31.3496 82.5128 34.7816L82.3994 35.6434C81.8929 36.0441 81.3713 36.475 80.827 36.921C78.2416 39.0528 75.316 41.4567 72.1939 42.0464C71.7009 42.1432 71.1996 42.1913 70.6971 42.19ZM62.8352 35.8551L63.5911 36.2557C64.6344 39.3249 68.5427 41.4492 71.952 40.7915C74.7566 40.2699 77.5537 37.9642 80.0257 35.9307L81.1445 35.0084C78.6271 31.2966 78.1206 26.4132 79.8518 21.4994C80.2071 20.4713 80.6077 19.4584 81.0311 18.4756C82.1121 15.8751 83.1553 13.3956 83.0948 10.5834C83.0966 9.79866 82.9663 9.01922 82.7093 8.27774C81.2503 3.9461 76.9111 3.49252 72.5719 3.40181C60.7941 3.12966 48.6836 2.72901 36.9663 2.33591C25.249 1.94281 13.1536 1.51192 1.35314 1.27001C1.05831 4.46771 1.05831 7.92244 6.80359 9.24536L7.27984 9.75941C8.0358 14.2196 9.01855 16.2229 15.5954 16.6235L16.185 17.251C16.2268 19.1036 16.9571 20.8743 18.2337 22.2176C18.7288 22.7277 19.3226 23.1316 19.979 23.4045C20.6353 23.6775 21.3405 23.8138 22.0513 23.8051C27.5697 23.8051 44.6771 23.5632 44.8434 23.5632L45.4859 24.1906C45.533 25.0133 45.7476 25.8176 46.1167 26.5544C46.4858 27.2911 47.0015 27.9446 47.6322 28.4748C48.263 29.005 48.9954 29.4007 49.7846 29.6377C50.5738 29.8747 51.403 29.9478 52.2215 29.8528L52.9775 30.3063C53.1705 31.3731 53.597 32.384 54.2263 33.2666C54.8557 34.1493 55.6723 34.882 56.6179 35.4122C57.5635 35.9424 58.6145 36.257 59.6959 36.3336C60.7772 36.4102 61.8621 36.2468 62.873 35.8551H62.8352Z" fill="white"/>
<path d="M4.71717 5.68473C4.56552 5.51518 4.46614 5.30538 4.43102 5.08064C4.39589 4.85589 4.42651 4.62578 4.5192 4.41804C4.61188 4.2103 4.76267 4.0338 4.95338 3.90981C5.1441 3.78582 5.36661 3.71964 5.59408 3.71924C29.5201 3.94603 72.9424 5.65449 74.5903 5.66205C76.6692 5.66205 79.4814 6.08539 81.0689 9.19237C81.318 9.73262 81.4641 10.3146 81.4998 10.9084C81.5603 14.0985 79.7006 16.5176 78.476 19.2239C77.4342 21.5417 76.8655 24.044 76.8031 26.5844C76.7408 29.1248 77.1862 31.652 78.1131 34.018C78.2123 34.2565 78.232 34.5205 78.1693 34.771C78.1067 35.0216 77.9651 35.2453 77.7654 35.409C76.0569 36.747 74.2577 38.0095 72.1486 38.4328C70.6793 38.7208 69.1555 38.4713 67.8548 37.7298C67.6344 37.6031 67.4609 37.4087 67.3601 37.1754C67.2592 36.9422 67.2364 36.6826 67.295 36.4353C67.3537 36.188 67.4906 35.9663 67.6854 35.8032C67.8803 35.64 68.1226 35.5442 68.3764 35.5299C68.6806 35.5124 68.9655 35.3755 69.1693 35.149C69.3732 34.9225 69.4794 34.6248 69.465 34.3204V34.1239C69.462 33.9713 69.4289 33.8208 69.3676 33.6811C69.3062 33.5414 69.2179 33.4153 69.1075 33.3099C68.9972 33.2045 68.8671 33.1219 68.7248 33.067C68.5824 33.0121 68.4306 32.9859 68.2781 32.9899H68.1345C65.7305 33.3603 60.8546 33.8593 59.2973 33.9349C57.9215 34.0105 55.5175 32.0903 55.2 30.2609C55.1471 29.9359 65.5113 29.8376 69.0643 29.7695C69.3665 29.7657 69.6554 29.6444 69.8699 29.4314C70.0843 29.2183 70.2075 28.9303 70.2133 28.628V28.2576C70.2215 27.9514 70.1087 27.6542 69.8992 27.4307C69.6898 27.2071 69.4007 27.075 69.0945 27.0632H69.0189C64.7553 27.1842 50.8004 27.4336 50.5055 27.4261C49.9821 27.3942 49.4743 27.235 49.0264 26.9623C48.5785 26.6896 48.2039 26.3116 47.9353 25.8612C47.7694 25.6064 47.7113 25.2963 47.7737 24.9988C47.836 24.7012 48.0137 24.4405 48.2679 24.2737C48.4624 24.1445 48.6921 24.0785 48.9256 24.0847C52.8414 24.1528 62.1095 24.2284 65.4055 24.2208C65.7142 24.2208 66.0103 24.0982 66.2287 23.8798C66.447 23.6615 66.5696 23.3654 66.5696 23.0566V22.4519C66.5697 22.1417 66.4475 21.844 66.2296 21.6233C66.0117 21.4026 65.7156 21.2766 65.4055 21.2726C59.3578 21.3179 31.9241 21.5069 22.2478 21.4691C22.0625 21.4644 21.881 21.4151 21.7187 21.3255C20.6855 20.7895 19.7764 20.0427 19.0501 19.1332C18.9618 19.0045 18.8999 18.8595 18.868 18.7067C18.8362 18.5538 18.835 18.3962 18.8645 18.2429C18.8941 18.0896 18.9537 17.9437 19.0401 17.8136C19.1265 17.6835 19.2378 17.5719 19.3676 17.4852C19.5697 17.3465 19.8105 17.275 20.0556 17.2811C33.3075 17.5533 47.0735 17.4928 60.3254 17.5003C60.4783 17.5013 60.6299 17.4722 60.7715 17.4146C60.9131 17.357 61.042 17.2721 61.1508 17.1647C61.2596 17.0573 61.3462 16.9295 61.4057 16.7887C61.4651 16.6478 61.4962 16.4966 61.4972 16.3437V16.0791C61.5012 15.9233 61.4744 15.7681 61.4185 15.6226C61.3625 15.4771 61.2784 15.344 61.171 15.2309C61.0636 15.1179 60.935 15.0272 60.7925 14.9639C60.65 14.9006 60.4964 14.866 60.3405 14.8621H60.2574C52.849 15.0208 13.0781 14.1893 12.7228 14.1061C11.7363 13.8298 10.8645 13.2442 10.2357 12.4354C10.1364 12.3187 10.0613 12.1835 10.0148 12.0375C9.96822 11.8916 9.95113 11.7378 9.96449 11.5852C9.97785 11.4326 10.0214 11.2841 10.0926 11.1485C10.1638 11.0128 10.2613 10.8927 10.3793 10.795C10.5896 10.6151 10.8585 10.5183 11.1353 10.5229C18.4302 10.6211 47.2549 11.0293 63.6894 11.4149C63.9957 11.421 64.292 11.3062 64.5141 11.0954C64.7363 10.8845 64.8664 10.5946 64.8763 10.2885V9.53255C64.8824 9.37804 64.8578 9.22385 64.804 9.07888C64.7501 8.93391 64.6682 8.80102 64.5628 8.68788C64.4574 8.57474 64.3306 8.48358 64.1898 8.41966C64.049 8.35574 63.8969 8.32033 63.7424 8.31546C55.8577 8.07355 8.20214 7.5595 7.08332 7.19664C6.17729 6.90543 5.36211 6.38455 4.71717 5.68473Z" fill="white"/>
<path d="M105.592 0.755981V11.1126C105.592 13.4258 105.116 15.157 104.163 16.306C102.893 17.8179 100.857 18.5739 98.0553 18.5739C95.0315 18.5739 92.9299 17.7197 91.675 16.0036C90.8737 14.9226 90.473 13.2822 90.473 11.0672V0.755981H95.0088V11.4074C94.9276 12.3476 95.1969 13.2845 95.7647 14.0382C96.0853 14.3309 96.4631 14.554 96.8743 14.6932C97.2855 14.8324 97.7211 14.8848 98.1536 14.847C98.5617 14.8823 98.9727 14.8282 99.3578 14.6885C99.7429 14.5488 100.093 14.3269 100.384 14.0382C100.913 13.2681 101.162 12.3391 101.087 11.4074V0.824018L105.592 0.755981Z" fill="white"/>
<path d="M123.554 0.755981V18.143H119.147L114.467 10.2659L113.469 8.49699C113.192 8.00619 112.939 7.50157 112.713 6.98507C112.819 8.26264 112.88 9.73676 112.88 11.3999V18.143H108.472V0.755981H113.054L117.37 8.10389C118.077 9.28189 118.723 10.4955 119.305 11.74C119.177 10.0391 119.116 8.54991 119.116 7.25722V0.755981H123.554Z" fill="white"/>
<path d="M131.242 0.755981V18.143H126.706V0.755981H131.242Z" fill="white"/>
<path d="M142.294 0.347812C143.516 0.299875 144.734 0.53327 145.851 1.03001C146.969 1.52675 147.958 2.27356 148.742 3.21289C150.15 4.98623 150.881 7.20197 150.806 9.46466C150.873 10.7333 150.673 12.0019 150.218 13.1883C149.764 14.3746 149.065 15.4523 148.168 16.3514C146.432 17.8915 144.162 18.6886 141.844 18.5713C139.527 18.4539 137.349 17.4315 135.778 15.724C134.349 13.9586 133.61 11.7341 133.699 9.46466C133.699 6.5769 134.553 4.30903 136.261 2.66104C137.889 1.12502 140.057 0.293668 142.294 0.347812ZM142.294 4.08224C141.69 4.07076 141.094 4.21668 140.564 4.50564C140.033 4.7946 139.588 5.21664 139.27 5.73023C138.593 6.84527 138.268 8.13924 138.34 9.44198C138.239 10.9227 138.668 12.3911 139.55 13.5846C139.89 13.9966 140.321 14.3248 140.809 14.5437C141.296 14.7626 141.828 14.8664 142.362 14.8471C142.926 14.8686 143.486 14.7475 143.991 14.4952C144.496 14.2428 144.929 13.8672 145.25 13.4032C146.009 12.1989 146.374 10.7878 146.293 9.36639C146.39 7.90373 145.952 6.45576 145.061 5.29178C144.722 4.88717 144.293 4.56717 143.809 4.35721C143.325 4.14724 142.798 4.05309 142.271 4.08224H142.294Z" fill="white"/>
<path d="M168.337 0.755981V18.143H163.922L159.25 10.2659L158.252 8.49699C157.966 8.01101 157.713 7.50583 157.496 6.98507C157.602 8.26264 157.663 9.73676 157.663 11.3999V18.143H153.255V0.755981H157.836L162.153 8.10389C162.86 9.28189 163.506 10.4955 164.088 11.74C163.96 10.0391 163.892 8.54991 163.892 7.25722V0.755981H168.337Z" fill="white"/>
<path d="M90.715 24.0168H97.8663C100.164 24.0168 101.822 24.3646 102.841 25.0601C103.621 25.5939 104.25 26.3208 104.666 27.1701C105.082 28.0193 105.271 28.9618 105.214 29.9058C105.244 30.7051 105.099 31.5013 104.79 32.239C104.48 32.9766 104.014 33.638 103.423 34.1769C102.379 35.1143 100.852 35.583 98.8415 35.583H95.2507V41.3736H90.715V24.0168ZM95.2507 27.7513V31.9846H98.2745C99.988 31.9846 100.845 31.274 100.845 29.8528C100.845 28.4619 99.9376 27.7588 98.1082 27.7437L95.2507 27.7513Z" fill="white"/>
<path d="M116.864 24.0168L123.365 41.4039H118.685L117.567 38.2289H111.519L110.4 41.4039H105.759L112.26 24.0168H116.864ZM116.501 34.948L115.662 32.597C115.222 31.329 114.856 30.0367 114.565 28.7265C114.233 29.9889 113.809 31.3118 113.371 32.6801L112.615 34.948H116.501Z" fill="white"/>
<path d="M140.767 34.6078C140.689 36.3401 140.031 37.9959 138.9 39.3099C137.463 40.9957 135.407 41.8348 132.746 41.8348C131.487 41.9011 130.231 41.6678 129.079 41.1539C127.928 40.6401 126.915 39.8604 126.124 38.879C124.749 37.1174 124.037 34.9285 124.113 32.6952C124.035 30.3513 124.845 28.0642 126.381 26.2923C127.195 25.3952 128.197 24.6889 129.316 24.2237C130.434 23.7585 131.642 23.5459 132.852 23.6011C134.95 23.5246 136.993 24.2799 138.537 25.7026C139.799 26.854 140.557 28.4565 140.646 30.1628H136.231C136.116 29.5042 135.833 28.8868 135.407 28.3712C135.076 28.0182 134.672 27.7419 134.222 27.5617C133.773 27.3814 133.29 27.3017 132.807 27.3279C132.185 27.3095 131.569 27.4514 131.018 27.7401C130.468 28.0287 130 28.4543 129.662 28.9759C128.98 30.1147 128.651 31.4301 128.717 32.7557C128.619 34.2302 129.05 35.6913 129.934 36.8757C130.287 37.2855 130.73 37.6085 131.228 37.8196C131.726 38.0306 132.267 38.1241 132.807 38.0928C133.341 38.1203 133.874 38.0129 134.356 37.7804C134.839 37.5479 135.255 37.1978 135.566 36.7623C135.96 36.1117 136.2 35.3802 136.269 34.6229L140.767 34.6078Z" fill="white"/>
<path d="M147.48 24.0168V41.4039H142.944V24.0168H147.48Z" fill="white"/>
<path d="M163.483 24.0168V27.7512H155.168V31.1455H162.342V34.6834H155.168V41.3736H150.632V23.9866L163.483 24.0168Z" fill="white"/>
<path d="M170.09 24.0168V41.4039H165.555V24.0168H170.09Z" fill="white"/>
<path d="M189.133 34.6078C189.046 36.3437 188.378 38 187.236 39.3099C185.792 40.9957 183.743 41.8348 181.075 41.8348C179.817 41.9011 178.561 41.6678 177.411 41.1539C176.261 40.64 175.25 39.8603 174.46 38.879C173.085 37.1174 172.373 34.9285 172.449 32.6952C172.365 30.3505 173.176 28.0615 174.717 26.2923C175.531 25.3952 176.533 24.6889 177.652 24.2237C178.77 23.7585 179.978 23.5459 181.188 23.6011C183.276 23.531 185.307 24.286 186.843 25.7026C188.105 26.854 188.863 28.4565 188.952 30.1628H184.537C184.413 29.4996 184.125 28.8782 183.698 28.356C183.375 28.0133 182.983 27.7431 182.547 27.5633C182.112 27.3834 181.644 27.2981 181.173 27.3128C180.549 27.291 179.929 27.4313 179.376 27.7202C178.822 28.009 178.352 28.4364 178.013 28.9608C177.331 30.0996 177.002 31.415 177.068 32.7406C176.963 34.2146 177.393 35.677 178.278 36.8606C178.622 37.2735 179.057 37.6019 179.548 37.8208C180.04 38.0396 180.575 38.143 181.112 38.123C181.648 38.1533 182.183 38.0471 182.667 37.8144C183.151 37.5817 183.568 37.2302 183.879 36.7925C184.273 36.142 184.513 35.4104 184.582 34.6532L189.133 34.6078Z" fill="white"/>
</g>
<defs>
<clipPath id="clip0_24_49">
<rect width="189.133" height="42.19" fill="white"/>
</clipPath>
</defs>
</svg>
